<?xml version="1.0" encoding="UTF-8"?>
<svg version="1.1" xmlns="http://www.w3.org/2000/svg" width="353" height="265">
<path d="M0 0 C6.88323558 6.26819362 9.07863498 11.9399106 10 21 C10.64066406 20.79503906 11.28132813 20.59007813 11.94140625 20.37890625 C26.0323758 15.98991573 38.5598391 15.61665722 51.96728516 22.36621094 C59.04471068 26.28070959 64.34005269 31.67087552 69.94140625 37.3828125 C71.04095112 38.48661865 72.14146957 39.58945574 73.24290466 40.69137573 C75.53048645 42.98507588 77.80963588 45.28671036 80.08227539 47.59521484 C82.99210513 50.55060826 85.9172539 53.49023804 88.84809971 56.42477608 C91.11284358 58.69394813 93.372106 60.96850902 95.62946892 63.24502182 C96.70689438 64.33130403 97.78538195 65.41653389 98.86496162 66.5006752 C100.36773551 68.01250356 101.86364004 69.53080189 103.35766602 71.05126953 C104.20829117 71.91253448 105.05891632 72.77379944 105.93531799 73.66116333 C108.35501388 76.40215369 109.8726248 78.51660964 110.1875 82.18359375 C109.8241683 86.55114354 109.3480373 88.5736543 106.5 92.0625 C103.23517102 94.28851976 100.21281693 94.83791604 96.296875 94.62109375 C92.6783279 93.64260908 90.54711365 91.4738813 87.91796875 88.88671875 C82.40816243 83.46668524 77.46593946 80.85766006 69.6875 80.75 C62.94745426 80.81732565 59.34481448 81.8733078 54.3125 86.4375 C49.61740497 91.64017287 47.8432844 95.02236155 47.625 102.125 C47.55152344 103.73761719 47.55152344 103.73761719 47.4765625 105.3828125 C48.85130593 114.88290515 55.7527781 121.33476376 62.31640625 127.8125 C63.65662086 129.15489746 63.65662086 129.15489746 65.02391052 130.52441406 C66.90282923 132.40168097 68.78508429 134.27457691 70.67456055 136.14111328 C73.09304522 138.53103076 75.49543855 140.93640747 77.89332676 143.3469696 C80.19338813 145.65565242 82.50525729 147.95242464 84.81640625 150.25 C85.67690079 151.11343018 86.53739532 151.97686035 87.42396545 152.86645508 C88.2283757 153.65818115 89.03278595 154.44990723 89.86157227 155.265625 C90.56596939 155.96461914 91.27036652 156.66361328 91.99610901 157.38378906 C94.07259429 159.05854993 95.36667105 159.69986825 98 160 C99.72686479 159.11456501 99.72686479 159.11456501 101.3125 157.5 C101.99441406 156.86449219 102.67632812 156.22898438 103.37890625 155.57421875 C108.1515671 150.886911 112.90021085 146.17693174 117.609375 141.42578125 C118.20041016 140.83104004 118.79144531 140.23629883 119.40039062 139.62353516 C120.72540439 138.27870281 122.02959844 136.9133936 123.328125 135.54296875 C125 134 125 134 127 134 C127.26554688 133.40832031 127.53109375 132.81664062 127.8046875 132.20703125 C129.03337579 129.93837477 130.28387757 128.48152395 132.125 126.6875 C132.66382813 126.15511719 133.20265625 125.62273437 133.7578125 125.07421875 C135.62387694 123.34794659 137.52282986 121.69563595 139.453125 120.04296875 C144.83738067 115.34777331 149.89704454 110.32531693 154.95507812 105.28515625 C156.62186097 103.62812068 158.29903785 101.98208823 159.9765625 100.3359375 C170.49912855 89.91826571 179.18460129 79.12190463 180.02734375 63.71484375 C179.92479806 53.53352165 176.10882726 43.97384353 169.625 36.125 C168.75875 35.42375 167.8925 34.7225 167 34 C166.43796875 33.51144531 165.8759375 33.02289063 165.296875 32.51953125 C156.65868409 25.40882531 147.74465445 23.27935063 136.65234375 23.6171875 C125.99373689 24.73434629 118.3302083 29.54324001 110.98046875 37.0546875 C110.18080688 37.87163086 110.18080688 37.87163086 109.36499023 38.70507812 C108.30184083 39.80438907 107.25014071 40.9149083 106.21118164 42.03710938 C104.8810286 43.43213184 103.44497791 44.72429093 102 46 C100.68 46 99.36 46 98 46 C97.25 44.3125 97.25 44.3125 97 42 C99.56681116 37.87078204 103.25998692 34.87814068 106.9375 31.76171875 C108.2148989 30.67060719 109.47037292 29.55249243 110.6875 28.39453125 C118.67045932 20.9296967 129.26522641 17.07725117 140.12890625 16.96875 C148.37853755 17.35834298 155.6161789 19.30808945 163 23 C162.67 22.34 162.34 21.68 162 21 C162.05629195 13.96350665 163.64170871 8.60016732 168.4375 3.3125 C173.32689605 -1.0998818 177.28466226 -3.83886436 184.171875 -4.07421875 C191.86143598 -3.61019352 197.24501948 -0.16448841 202.375 5.4375 C206.46814106 10.58729433 207.56425645 15.45462521 207 22 C205.39144117 28.83975437 201.90470952 34.54871013 195.890625 38.32421875 C190.76173536 40.844449 186.67125674 41.41245504 181 41 C181.27714844 41.66386719 181.55429687 42.32773438 181.83984375 43.01171875 C182.20207031 43.89472656 182.56429687 44.77773437 182.9375 45.6875 C183.47697266 46.99267578 183.47697266 46.99267578 184.02734375 48.32421875 C187.70904419 58.45259144 187.35131433 71.15141451 183 81 C176.14910053 95.37756793 162.56787348 106.58450091 151.43359375 117.69921875 C150.06390576 119.06958212 148.6943661 120.44009375 147.32496643 121.81074524 C144.48185241 124.65532024 141.63697091 127.49811188 138.79077148 130.33959961 C135.13894292 133.98567711 131.49169629 137.63630019 127.84571743 141.28822613 C125.03120463 144.10634173 122.21432802 146.9220848 119.39671516 149.7371006 C118.04952636 151.08362216 116.70308045 152.43088742 115.35738945 153.77890587 C113.48862827 155.65019476 111.61671299 157.51826902 109.74389648 159.38549805 C109.18862274 159.94279602 108.633349 160.50009399 108.06124878 161.07427979 C104.73916997 164.3779375 102.68198632 166.17352275 98 166.625 C93.75202566 166.47136937 91.90211679 165.48513132 88.83203125 162.5859375 C87.96271973 161.76786621 87.0934082 160.94979492 86.19775391 160.10693359 C85.13035443 159.07281606 84.06459867 158.03700067 83 157 C82.35190369 156.3729718 81.70380737 155.7459436 81.03607178 155.09991455 C76.37023201 150.57832 71.74499201 146.01747496 67.1394043 141.43457031 C65.50028766 139.80704157 63.85669641 138.18400734 62.20874023 136.56542969 C59.79979336 134.19926498 57.40447898 131.82001941 55.01171875 129.4375 C54.28143967 128.724729 53.55116058 128.01195801 52.79875183 127.27758789 C45.46124933 119.90888848 40.87961656 112.6757236 40.8125 102.125 C40.83953208 97.70255142 41.17838119 94.09864232 43 90 C42.13375 89.938125 41.2675 89.87625 40.375 89.8125 C36.13999539 88.79296185 34.09339967 87.02309514 31 84 C28.43428058 79.75870872 28.34763586 75.83564918 29 71 C30.36825411 66.94965687 32.28709199 64.45504767 35.9375 62.125 C41.46434085 60.09473193 44.47012728 59.5172 50 62 C55.49929006 65.66619337 57.08261195 68.71522807 59 75 C59.99 74.67 60.98 74.34 62 74 C71.59499223 73.24769341 79.47075983 73.50302093 87.11328125 79.71875 C88.46903687 80.92386611 89.81098184 82.14474958 91.13671875 83.3828125 C93.59807404 85.51908313 96.01392843 86.73091958 99 88 C101.0995533 86.84315671 101.0995533 86.84315671 103 85 C103.51434032 82.6268296 103.51434032 82.6268296 103 80 C101.28555656 77.53346775 101.28555656 77.53346775 98.84423828 75.21313477 C97.93553986 74.29190323 97.02684143 73.37067169 96.09060669 72.42152405 C95.08439537 71.42759089 94.07761575 70.43423277 93.0703125 69.44140625 C92.03971306 68.40997744 91.00992993 67.37773239 89.98092651 66.3447113 C87.81807871 64.17900342 85.64670433 62.02233883 83.46875 59.87182617 C80.69879351 57.13571741 77.94908126 54.38030251 75.20543098 51.61784458 C73.07825244 49.48000485 70.94129165 47.35215897 68.80132675 45.22712517 C67.78523404 44.21616411 66.77188067 43.20244112 65.76150894 42.18576241 C55.65608257 32.04102653 45.50144833 24.32666835 30.69921875 23.90625 C23.49356857 24.24494096 17.40285881 25.6863335 11 29 C10.21753906 29.39960937 9.43507812 29.79921875 8.62890625 30.2109375 C-0.10564669 35.30732083 -5.37280895 44.37355058 -8 54 C-8.38952803 56.99420341 -8.43156284 59.9213507 -8.375 62.9375 C-8.36339844 63.73164307 -8.35179688 64.52578613 -8.33984375 65.34399414 C-7.89194388 81.36135443 1.84487162 91.36166051 13.00390625 102.0859375 C14.41428439 103.46809408 15.82464592 104.85026815 17.23398495 106.23348427 C20.66595933 109.59719117 24.11482833 112.94343397 27.57055664 116.28271484 C29.5283942 118.175832 31.4780762 120.0767008 33.41966248 121.98648071 C35.23881714 123.77459991 37.07026685 125.55031341 38.91493225 127.31210327 C39.73005783 128.11709259 40.54518341 128.92208191 41.38500977 129.75146484 C42.10922623 130.45330902 42.83344269 131.1551532 43.5796051 131.87826538 C45 134 45 134 44.72593689 136.76553345 C44.48637772 137.50290741 44.24681854 138.24028137 44 139 C40.12773586 138.43831067 38.34886482 136.72837671 35.61791992 134.00610352 C34.7599028 133.15754288 33.90188568 132.30898224 33.01786804 131.43470764 C31.63810539 130.04583595 31.63810539 130.04583595 30.23046875 128.62890625 C29.26690164 127.66736238 28.30288976 126.70626402 27.3384552 125.74559021 C25.31536257 123.72692185 23.29779491 121.70292733 21.28393555 119.67504883 C18.72558269 117.09974187 16.15418324 114.53795688 13.57833385 111.98016453 C11.58146275 109.99424694 9.591931 108.00109848 7.60439491 106.00584221 C6.20661534 104.60513381 4.80287353 103.21038313 3.39897156 101.81581116 C-8.0789584 90.21275828 -15.26448314 79.11283522 -15.5 62.4375 C-15.4530773 55.11426625 -13.91379606 48.75116141 -11 42 C-12.27875 41.79375 -13.5575 41.5875 -14.875 41.375 C-21.81504002 39.81815058 -27.71185214 36.51696265 -32.5 31.25 C-35.54165434 24.65974893 -36.85893642 18.26543999 -34.88671875 11.16796875 C-32.06240978 4.26271995 -27.67543291 0.0904782 -21 -3 C-13.77222456 -5.79784856 -6.30451803 -4.05613257 0 0 Z M-27.4375 8.6875 C-30.07181076 14.27223881 -30.81122229 19.37106361 -28.875 25.3125 C-26.70111538 30.30548614 -22.90168522 32.89290034 -18 35 C-13.06195847 35.70077817 -9.11116802 35.55558401 -4.625 33.3125 C-1.04859574 30.16185815 2.73926854 26.787821 3.203125 21.828125 C3.30092989 16.44885579 3.18036227 12.55851926 0 8 C-2.87569749 5.03569559 -5.75617638 2.38580215 -10 2 C-11.0725 1.896875 -12.145 1.79375 -13.25 1.6875 C-19.27870185 2.18989182 -23.37198919 4.20501373 -27.4375 8.6875 Z M173.12890625 6.62109375 C169.43396265 10.7413546 168.21699294 13.74327343 167.6875 19.25 C168.07767396 23.93208749 169.23302874 27.20364956 172 31 C176.93961954 35.03234248 181.08946946 35.63796971 187.4140625 35.38671875 C192.40658217 34.64010327 195.03882944 32.0650809 198.3125 28.4375 C201.4707314 23.8756102 201.63487767 19.37410538 201 14 C199.19657752 8.7133958 195.93625369 5.51652149 191 3 C184.55342248 1.17549693 178.2583269 2.17702366 173.12890625 6.62109375 Z M35 72 C34.16666667 75.5 34.16666667 75.5 35 79 C37.59216083 82.69186542 39.04149064 83.82883761 43.5 84.625 C47.95850936 83.82883761 49.40783917 82.69186542 52 79 C52.83333333 75.5 52.83333333 75.5 52 72 C49.40783917 68.30813458 47.95850936 67.17116239 43.5 66.375 C39.04149064 67.17116239 37.59216083 68.30813458 35 72 Z " fill="#373737" transform="translate(100,67)"/>
<path d="M0 0 C4.22228083 3.56328541 8.07566575 7.44075351 11.94140625 11.3828125 C13.04095112 12.48661865 14.14146957 13.58945574 15.24290466 14.69137573 C17.53048645 16.98507588 19.80963588 19.28671036 22.08227539 21.59521484 C24.99210513 24.55060826 27.9172539 27.49023804 30.84809971 30.42477608 C33.11284358 32.69394813 35.372106 34.96850902 37.62946892 37.24502182 C38.70689438 38.33130403 39.78538195 39.41653389 40.86496162 40.5006752 C42.36773551 42.01250356 43.86364004 43.53080189 45.35766602 45.05126953 C46.20829117 45.91253448 47.05891632 46.77379944 47.93531799 47.66116333 C50.35501388 50.40215369 51.8726248 52.51660964 52.1875 56.18359375 C51.8241683 60.55114354 51.3480373 62.5736543 48.5 66.0625 C45.23517102 68.28851976 42.21281693 68.83791604 38.296875 68.62109375 C33.90929766 67.43465702 31.1332573 64.13977135 28 61 C22.1217067 55.45227087 15.8860523 54.79453459 8 54 C8 53.67 8 53.34 8 53 C12.95 52.505 12.95 52.505 18 52 C18 51.67 18 51.34 18 51 C12.39 51 6.78 51 1 51 C1 50.34 1 49.68 1 49 C7.72432649 46.75855784 16.28695707 46.86739153 22.875 49.5625 C26.80543462 51.60428422 29.91455587 54.37373855 33.13671875 57.3828125 C35.59807404 59.51908313 38.01392843 60.73091958 41 62 C43.0995533 60.84315671 43.0995533 60.84315671 45 59 C45.51434032 56.6268296 45.51434032 56.6268296 45 54 C43.28555656 51.53346775 43.28555656 51.53346775 40.84423828 49.21313477 C39.48119064 47.83128746 39.48119064 47.83128746 38.09060669 46.42152405 C37.08439537 45.42759089 36.07761575 44.43423277 35.0703125 43.44140625 C34.03971306 42.40997744 33.00992993 41.37773239 31.98092651 40.3447113 C29.81807871 38.17900342 27.64670433 36.02233883 25.46875 33.87182617 C22.69879351 31.13571741 19.94908126 28.38030251 17.20543098 25.61784458 C15.07825244 23.48000485 12.94129165 21.35215897 10.80132675 19.22712517 C9.78523404 18.21616411 8.77188067 17.20244112 7.76150894 16.18576241 C-3.80165094 4.57762253 -14.53896455 -2.13306666 -31.25 -2.1875 C-33.16710317 -2.14024746 -35.08413041 -2.08343303 -37 -2 C-37 -2.33 -37 -2.66 -37 -3 C-36.195625 -3.12375 -35.39125 -3.2475 -34.5625 -3.375 C-33.716875 -3.58125 -32.87125 -3.7875 -32 -4 C-31.67 -4.66 -31.34 -5.32 -31 -6 C-33.31 -6.33 -35.62 -6.66 -38 -7 C-38 -7.33 -38 -7.66 -38 -8 C-23.892795 -10.35120083 -12.06174475 -7.83909355 0 0 Z " fill="#3C3C3C" transform="translate(158,93)"/>
<path d="M0 0 C1.25 1.5625 1.25 1.5625 1.25 3.5625 C0.58057373 3.54155273 -0.08885254 3.52060547 -0.77856445 3.49902344 C-3.87305081 3.41480522 -6.96729493 3.36350985 -10.0625 3.3125 C-11.11501953 3.27898437 -12.16753906 3.24546875 -13.25195312 3.2109375 C-24.32378279 3.07466883 -33.5361665 6.04175478 -41.75 13.5625 C-42.76221558 14.57505789 -43.76821979 15.59384532 -44.76953125 16.6171875 C-45.30263916 17.16181641 -45.83574707 17.70644531 -46.38500977 18.26757812 C-47.44815917 19.36688907 -48.49985929 20.4774083 -49.53881836 21.59960938 C-50.8689714 22.99463184 -52.30502209 24.28679093 -53.75 25.5625 C-55.07 25.5625 -56.39 25.5625 -57.75 25.5625 C-58.5 23.875 -58.5 23.875 -58.75 21.5625 C-56.18318884 17.43328204 -52.49001308 14.44064068 -48.8125 11.32421875 C-47.5351011 10.23310719 -46.27962708 9.11499243 -45.0625 7.95703125 C-35.35015864 -1.1249418 -11.90799085 -9.78156392 0 0 Z " fill="#333333" transform="translate(255.75,87.4375)"/>
<path d="M0 0 C0.99 0.33 1.98 0.66 3 1 C2.54560547 1.42821045 2.09121094 1.8564209 1.62304688 2.29760742 C-0.43102921 4.24766299 -2.46544343 6.21709611 -4.5 8.1875 C-5.21542969 8.86103516 -5.93085938 9.53457031 -6.66796875 10.22851562 C-7.34472656 10.88916016 -8.02148438 11.54980469 -8.71875 12.23046875 C-9.66137695 13.13381958 -9.66137695 13.13381958 -10.62304688 14.05541992 C-12.2515553 15.9241483 -12.2515553 15.9241483 -11.85400391 18.35180664 C-12.07973732 22.44633901 -14.806884 24.44359109 -17.6171875 27.140625 C-18.18954132 27.70827576 -18.76189514 28.27592651 -19.35159302 28.86077881 C-21.18133951 30.6691916 -23.0279993 32.45923118 -24.875 34.25 C-26.11176249 35.47025506 -27.34745301 36.6915976 -28.58203125 37.9140625 C-38.76511833 47.94427429 -38.76511833 47.94427429 -42.1640625 48.09765625 C-43.38222656 48.08025391 -43.38222656 48.08025391 -44.625 48.0625 C-45.85089844 48.04896484 -45.85089844 48.04896484 -47.1015625 48.03515625 C-47.72804687 48.02355469 -48.35453125 48.01195312 -49 48 C-49 47.67 -49 47.34 -49 47 C-46.03 46.505 -46.03 46.505 -43 46 C-43.639375 45.71125 -44.27875 45.4225 -44.9375 45.125 C-47 44 -47 44 -48 42 C-47.11393066 41.92885986 -46.22786133 41.85771973 -45.31494141 41.78442383 C-41.27763304 40.82906429 -39.82909573 39.40863911 -36.9609375 36.44921875 C-35.59582031 35.05993164 -35.59582031 35.05993164 -34.203125 33.64257812 C-33.26009636 32.65785873 -32.31739079 31.67282985 -31.375 30.6875 C-30.42565572 29.71304508 -29.47514452 28.73972559 -28.5234375 27.76757812 C-26.772055 25.97265984 -25.02586166 24.17265288 -23.28662109 22.3659668 C-22.53203613 21.58519775 -21.77745117 20.80442871 -21 20 C-19.92419678 18.85688354 -19.92419678 18.85688354 -18.82666016 17.69067383 C-17 16 -17 16 -15 16 C-14.73703125 15.41089844 -14.4740625 14.82179687 -14.203125 14.21484375 C-12.18039778 10.49118682 -9.07050746 7.87220385 -6 5 C-5.443125 4.47277344 -4.88625 3.94554687 -4.3125 3.40234375 C-2.75 2 -2.75 2 0 0 Z " fill="#484848" transform="translate(242,185)"/>
<path d="M0 0 C5.92867594 2.79654525 9.99955875 7.82720572 12.8125 13.6875 C13.96292546 20.30244642 13.4507317 25.64502251 10.3125 31.5625 C5.78761312 37.82494344 5.78761312 37.82494344 2.3125 39.5625 C0.31289988 39.602492 -1.68797242 39.60596799 -3.6875 39.5625 C-3.0378125 38.9746875 -3.0378125 38.9746875 -2.375 38.375 C-0.41734605 36.27233465 0.86290872 34.03888511 2.3125 31.5625 C2.84875 30.86125 3.385 30.16 3.9375 29.4375 C6.99226832 25.27190683 6.90441663 20.5115807 6.3125 15.5625 C4.5915904 10.68035428 1.95179681 7.81680619 -2.6875 5.5625 C-5.96447851 4.99036889 -5.96447851 4.99036889 -9.375 4.875 C-10.51324219 4.80925781 -11.65148437 4.74351563 -12.82421875 4.67578125 C-14.44448464 4.61167796 -16.06596653 4.5625 -17.6875 4.5625 C-17.3125 2.625 -17.3125 2.625 -16.6875 0.5625 C-11.88901972 -1.83674014 -5.17520397 -0.61400725 0 0 Z " fill="#353535" transform="translate(293.6875,65.4375)"/>
<path d="M0 0 C3.93798757 2.04951026 7.1001173 4.80670979 10.328125 7.828125 C12.4197772 9.70151784 14.71792322 11.00829816 17.125 12.4375 C17.125 13.0975 17.125 13.7575 17.125 14.4375 C17.785 14.7675 18.445 15.0975 19.125 15.4375 C18.795 16.0975 18.465 16.7575 18.125 17.4375 C11.19529297 17.31592619 11.19529297 17.31592619 8.31640625 14.953125 C7.17045363 13.71454342 6.02997661 12.47087722 4.89453125 11.22265625 C-0.63229304 5.64702998 -7.31585059 4.74730121 -14.875 4.4375 C-14.875 4.1075 -14.875 3.7775 -14.875 3.4375 C-11.575 3.1075 -8.275 2.7775 -4.875 2.4375 C-4.875 2.1075 -4.875 1.7775 -4.875 1.4375 C-10.485 1.4375 -16.095 1.4375 -21.875 1.4375 C-21.875 0.7775 -21.875 0.1175 -21.875 -0.5625 C-15.15067351 -2.80394216 -6.58804293 -2.69510847 0 0 Z " fill="#434343" transform="translate(180.875,142.5625)"/>
<path d="M0 0 C-0.33 0.99 -0.66 1.98 -1 3 C-0.01 3.66 0.98 4.32 2 5 C0.9275 5.7425 -0.145 6.485 -1.25 7.25 C-5.92296162 10.70465377 -9.85139172 14.78120935 -13.78613281 19.03613281 C-15.11771653 20.43099971 -16.55436612 21.72371181 -18 23 C-19.32 23 -20.64 23 -22 23 C-22.75 21.3125 -22.75 21.3125 -23 19 C-19.98280531 14.14625202 -15.31975147 10.66012461 -11 7 C-10.33871094 6.42378906 -9.67742187 5.84757812 -8.99609375 5.25390625 C-2.96103118 0 -2.96103118 0 0 0 Z " fill="#414141" transform="translate(220,90)"/>
<path d="M0 0 C0 0.66 0 1.32 0 2 C0.85464844 2.19335938 1.70929688 2.38671875 2.58984375 2.5859375 C3.69457031 2.84632812 4.79929687 3.10671875 5.9375 3.375 C7.59072266 3.75785156 7.59072266 3.75785156 9.27734375 4.1484375 C10.17582031 4.42945312 11.07429688 4.71046875 12 5 C12.33 5.66 12.66 6.32 13 7 C12.16597656 6.88140625 11.33195312 6.7628125 10.47265625 6.640625 C2.82361318 5.76444595 -2.34445447 5.99291445 -9 10 C-8.835 9.236875 -8.67 8.47375 -8.5 7.6875 C-7.90854604 4.96403764 -7.90854604 4.96403764 -8 2 C-4.91190305 0.23537317 -3.76687864 0 0 0 Z " fill="#494949" transform="translate(83,64)"/>
<path d="M0 0 C0.99 0.33 1.98 0.66 3 1 C0.44999095 3.63738416 -2.11703788 6.25755816 -4.6875 8.875 C-5.7693457 9.99455078 -5.7693457 9.99455078 -6.87304688 11.13671875 C-7.57880859 11.85214844 -8.28457031 12.56757813 -9.01171875 13.3046875 C-9.65584717 13.96452637 -10.29997559 14.62436523 -10.96362305 15.30419922 C-13.19953832 17.16616631 -15.26046651 18.06394072 -18 19 C-17.505 17.515 -17.505 17.515 -17 16 C-16.34 16 -15.68 16 -15 16 C-14.60554687 15.11634766 -14.60554687 15.11634766 -14.203125 14.21484375 C-12.18039778 10.49118682 -9.07050746 7.87220385 -6 5 C-5.443125 4.47277344 -4.88625 3.94554687 -4.3125 3.40234375 C-2.75 2 -2.75 2 0 0 Z " fill="#646464" transform="translate(242,185)"/>
<path d="M0 0 C0.99 0.33 1.98 0.66 3 1 C2.030625 1.86625 1.06125 2.7325 0.0625 3.625 C-2.91504038 6.56751049 -3.79692286 8.73538008 -4 13 C-5.65 13.33 -7.3 13.66 -9 14 C-9.75 12.3125 -9.75 12.3125 -10 10 C-7.35732238 5.87742291 -3.93595904 2.84728952 0 0 Z " fill="#202020" transform="translate(207,99)"/>
<path d="M0 0 C11.52164009 -0.3690205 11.52164009 -0.3690205 17 2 C16.67 2.99 16.34 3.98 16 5 C10.39 4.34 4.78 3.68 -1 3 C-0.67 2.01 -0.34 1.02 0 0 Z " fill="#0C0C0C" transform="translate(279,65)"/>
<path d="M0 0 C1.8871875 0.0309375 1.8871875 0.0309375 3.8125 0.0625 C3.125 2 3.125 2 1.8125 4.0625 C-2.09418073 5.40193339 -6.09345029 5.14277548 -10.1875 5.0625 C-7.29994867 0.79992422 -5.07715232 -0.08323201 0 0 Z " fill="#181818" transform="translate(124.1875,85.9375)"/>
<path d="M0 0 C1.63001953 0.01353516 1.63001953 0.01353516 3.29296875 0.02734375 C4.12441406 0.03894531 4.95585937 0.05054688 5.8125 0.0625 C5.8125 1.0525 5.8125 2.0425 5.8125 3.0625 C0.5325 3.0625 -4.7475 3.0625 -10.1875 3.0625 C-8.19010785 -0.9322843 -3.93646808 -0.04232761 0 0 Z " fill="#010101" transform="translate(170.1875,142.9375)"/>
<path d="M0 0 C0.66 0.33 1.32 0.66 2 1 C0.90344712 2.31886772 -0.20253423 3.62990057 -1.3125 4.9375 C-1.92738281 5.66839844 -2.54226563 6.39929688 -3.17578125 7.15234375 C-5 9 -5 9 -8 10 C-6.44303593 6.17836093 -3.96591316 3.81381505 -1 1 C-0.67 0.67 -0.34 0.34 0 0 Z " fill="#585858" transform="translate(273,66)"/>
<path d="M0 0 C-1.93254772 2.0245738 -3.63158688 3.42105792 -6 5 C-8.1875 4.625 -8.1875 4.625 -10 4 C-7.6604297 0.49064455 -4.21379901 -2.1068995 0 0 Z " fill="#050505" transform="translate(228,89)"/>
<path d="M0 0 C0.66 0.66 1.32 1.32 2 2 C1.34 2.66 0.68 3.32 0 4 C0.99 4.66 1.98 5.32 3 6 C1.35 6.33 -0.3 6.66 -2 7 C-2.6875 5.1875 -2.6875 5.1875 -3 3 C-1.5625 1.25 -1.5625 1.25 0 0 Z " fill="#5B5B5B" transform="translate(200,106)"/>
<path d="M0 0 C0.66 0.33 1.32 0.66 2 1 C-1.625 5.875 -1.625 5.875 -5 7 C-3.75023244 3.34683329 -3.32901247 2.21934164 0 0 Z " fill="#5B5B5B" transform="translate(136,129)"/>
<path d="M0 0 C0.66 0.33 1.32 0.66 2 1 C3.70363822 1.22622081 5.41328701 1.40888473 7.125 1.5625 C8.03507812 1.64628906 8.94515625 1.73007813 9.8828125 1.81640625 C10.58148438 1.87699219 11.28015625 1.93757813 12 2 C12 2.33 12 2.66 12 3 C5.565 3.495 5.565 3.495 -1 4 C-0.67 2.68 -0.34 1.36 0 0 Z " fill="#2A2A2A" transform="translate(277,66)"/>
<path d="M0 0 C-0.33 0.66 -0.66 1.32 -1 2 C-3.31 2 -5.62 2 -8 2 C-6.14210462 -1.71579076 -3.44525918 -1.06921837 0 0 Z " fill="#030303" transform="translate(128,87)"/>
</svg>
